<svg xmlns="http://www.w3.org/2000/svg" viewBox="0 0 1198 236"><defs><style>.cls-1{fill:#fff;}</style></defs><title>Asset 4</title><g id="Layer_2" data-name="Layer 2"><g id="Layer_1-2" data-name="Layer 1"><path class="cls-1" d="M351.56,154.51v8.17H288.37V73.32h61.27v8.17H297.82v31.79H344v8H297.82v33.19Z"/><path class="cls-1" d="M382.7,153.49q-9.69-10-9.7-29V73.32h9.45v50.81q0,15.57,7,23.23t20.3,7.66q13.39,0,20.42-7.66t7-23.23V73.32h9.19v51.19q0,19-9.64,29t-27,9.95Q392.4,163.44,382.7,153.49Z"/><path class="cls-1" d="M535.88,162.68,515.46,134a66.1,66.1,0,0,1-7.15.38h-24v28.34h-9.44V73.32h33.44q17.1,0,26.81,8.17t9.7,22.47q0,10.47-5.3,17.68T524.4,132l21.82,30.64Zm-7.53-42.25q7-5.88,7-16.47,0-10.84-7-16.66t-20.29-5.81H484.31V126.3h23.75Q521.32,126.3,528.35,120.43Z"/><path class="cls-1" d="M630.34,154.51v8.17H567.16V73.32h61.27v8.17H576.6v31.79h46.21v8H576.6v33.19Z"/><path class="cls-1" d="M666.92,157.57a43,43,0,0,1-16.73-16.27,45.44,45.44,0,0,1-6.06-23.3,45.47,45.47,0,0,1,6.06-23.3A42.86,42.86,0,0,1,667,78.43a52.23,52.23,0,0,1,42.38-2.55,38,38,0,0,1,14.3,9.7l-6,6Q707.19,81,691.23,81A38.84,38.84,0,0,0,672,85.83a35.49,35.49,0,0,0-13.6,13.28,38.79,38.79,0,0,0,0,37.78A35.49,35.49,0,0,0,672,150.17,38.84,38.84,0,0,0,691.23,155q16.1,0,26.43-10.72l6,6a38.74,38.74,0,0,1-14.36,9.76,49.34,49.34,0,0,1-18.45,3.38A48.68,48.68,0,0,1,666.92,157.57Z"/><path class="cls-1" d="M797.57,138.81H747.78l-10.72,23.87h-9.83l40.85-89.36h9.32l40.85,89.36h-10Zm-3.45-7.66-21.45-48-21.44,48Z"/><path class="cls-1" d="M922.53,138.81H872.75L862,162.68H852.2l40.85-89.36h9.31l40.85,89.36h-10Zm-3.44-7.66-21.45-48-21.44,48Z"/><path class="cls-1" d="M1018.27,81.49q9.7,8.17,9.7,22.47t-9.7,22.4q-9.71,8.12-26.8,8.11h-24v28.21H958V73.32h33.45Q1008.57,73.32,1018.27,81.49Zm-6.76,38.87q7-5.81,7-16.4,0-10.84-7-16.66t-20.3-5.81H967.47v44.68h23.74Q1004.48,126.17,1011.51,120.36Z"/><path class="cls-1" d="M1108.65,81.49q9.69,8.17,9.7,22.47t-9.7,22.4q-9.7,8.12-26.81,8.11h-24v28.21h-9.44V73.32h33.44Q1098.94,73.32,1108.65,81.49Zm-6.77,38.87q7-5.81,7-16.4,0-10.84-7-16.66t-20.3-5.81h-23.74v44.68h23.74Q1094.86,126.17,1101.88,120.36Z"/><path class="cls-1" d="M1145.6,160.25q-9.13-3.18-14.11-8.42l3.71-7.28a35.33,35.33,0,0,0,12.89,7.85,47.08,47.08,0,0,0,16.59,3q12,0,18-4.4a13.58,13.58,0,0,0,6-11.43,11.43,11.43,0,0,0-3.25-8.55,21.81,21.81,0,0,0-8-4.91,128,128,0,0,0-13.15-3.77,138.81,138.81,0,0,1-16.08-4.91,26.43,26.43,0,0,1-10.28-7.22q-4.28-4.84-4.28-13.14a22.32,22.32,0,0,1,3.58-12.32,24.44,24.44,0,0,1,11-8.87q7.4-3.33,18.38-3.32a54.34,54.34,0,0,1,15,2.1,43.3,43.3,0,0,1,12.7,5.81L1191.11,88a44.18,44.18,0,0,0-12-5.55,45,45,0,0,0-12.51-1.85q-11.74,0-17.68,4.53A14,14,0,0,0,1143,96.81a11.67,11.67,0,0,0,3.26,8.62,21.18,21.18,0,0,0,8.17,5q4.9,1.72,13.21,3.77a132.35,132.35,0,0,1,15.89,4.79,26,26,0,0,1,10.28,7.15q4.21,4.79,4.21,13a22,22,0,0,1-3.64,12.32q-3.63,5.55-11.17,8.81t-18.51,3.25A57.33,57.33,0,0,1,1145.6,160.25Z"/><path class="cls-1" d="M201.84,0H34.16A34.15,34.15,0,0,0,0,34.16V201.84A34.15,34.15,0,0,0,34.16,236H201.84A34.15,34.15,0,0,0,236,201.84V34.16A34.15,34.15,0,0,0,201.84,0Zm-2.66,74L183.31,85.2a.47.47,0,0,1-.28.09l-55.34,39.29a.51.51,0,0,1-.38.09.54.54,0,0,1-.32-.21L115.28,108a.52.52,0,0,1-.09-.38.49.49,0,0,1,.2-.32l54.26-38.53a67.14,67.14,0,1,0-12.16,107.5.5.5,0,0,1,.66.15l11.16,15.87a.51.51,0,0,1-.15.72A87.52,87.52,0,0,1,36.73,113.24c2.41-45.14,39.71-81.47,84.93-82.71a87.78,87.78,0,0,1,77.67,42.84A.49.49,0,0,1,199.18,74Z"/></g></g></svg>